<svg width="16" height="16" viewBox="0 0 16 16" fill="none" xmlns="http://www.w3.org/2000/svg">
<rect x="3" y="5" width="10" height="7" fill="white"/>
<rect x="1" y="12" width="6" height="1" fill="#85898D"/>
<rect x="8" y="4" width="6" height="1" fill="#85898D"/>
<rect x="8" y="1" width="7" height="1" fill="#85898D"/>
<rect x="8" y="2" width="6" height="1" fill="#0706A7"/>
<rect x="8" y="3" width="2" height="1" fill="#0706A7"/>
<rect x="1" y="13" width="6" height="1" fill="black"/>
<rect x="1" y="7" width="1" height="5" fill="#85898D"/>
<rect x="2" y="6" width="1" height="6" fill="#C2C6CA"/>
<rect x="7" y="9" width="2" height="5" fill="#A90055"/>
<rect x="8" y="10" width="1" height="3" fill="#FD0016"/>
<rect x="14" y="10" width="1" height="3" fill="#FD0016"/>
<rect x="9" y="15" width="5" height="1" fill="black"/>
<rect x="8" y="14" width="2" height="1" fill="#A90055"/>
<rect x="10" y="14" width="3" height="1" fill="#FD0016"/>
<rect x="10" y="8" width="3" height="1" fill="#FD0016"/>
<rect x="13" y="14" width="1" height="1" fill="#A90055"/>
<rect x="14" y="13" width="1" height="1" fill="#A90055"/>
<rect x="14" y="14" width="1" height="1" fill="#030102"/>
<rect x="15" y="9" width="1" height="5" fill="black"/>
<rect x="14" y="2" width="1" height="7" fill="black"/>
<rect x="13" y="5" width="1" height="2" fill="#85898D"/>
<rect x="14" y="9" width="1" height="1" fill="#A90055"/>
<rect x="13" y="8" width="1" height="1" fill="#A90055"/>
<rect x="9" y="7" width="5" height="1" fill="#A90055"/>
<rect x="8" y="8" width="2" height="1" fill="#A90055"/>
<rect x="9" y="9" width="5" height="5" fill="white"/>
<rect x="9" y="13" width="1" height="1" fill="#85898D"/>
<rect x="9" y="9" width="1" height="1" fill="#85898D"/>
<rect x="13" y="9" width="1" height="1" fill="#85898D"/>
<rect x="13" y="13" width="1" height="1" fill="#85898D"/>
<rect x="11" y="13" width="1" height="1" fill="#85898D"/>
<path d="M11 10H12V11H13V12H11V10Z" fill="#0706A7"/>
<rect y="6" width="3" height="1" fill="black"/>
<rect x="4" y="6" width="4" height="1" fill="black"/>
<rect x="3" y="1" width="1" height="5" fill="black"/>
<rect x="7" y="1" width="1" height="5" fill="black"/>
<rect y="1" width="1" height="5" fill="#85898D"/>
<rect width="3" height="1" fill="#85898D"/>
<rect x="4" width="4" height="1" fill="#85898D"/>
<rect x="1" y="1" width="2" height="5" fill="white"/>
<rect x="4" y="1" width="3" height="5" fill="white"/>
<rect x="1" y="2" width="1" height="1" fill="#100DFB"/>
<rect x="5" y="4" width="1" height="1" fill="#100DFB"/>
<rect x="5" y="2" width="1" height="1" fill="#100DFB"/>
<rect x="1" y="4" width="1" height="1" fill="#100DFB"/>
<rect x="11" y="3" width="1" height="1" fill="black"/>
<rect x="13" y="3" width="1" height="1" fill="black"/>
</svg>
