<svg width="42" height="50" viewBox="0 0 42 50" fill="none" xmlns="http://www.w3.org/2000/svg">
<path d="M13.4999 3V0.5H28.4999V3V3.5H28.9999H31.4999V6.5V7H31.9999H34.4999V10V10.5H34.9999H37.4999V25.5H34.9999H34.4999V26V28.5H31.9999H31.4999V29V31.5H28.9999H28.4999V32V36V36.5H28.9999H34.4999V39V39.5H34.9999H37.4999V42V42.5H37.9999H41.5V49.5H20.4999H0.5V42.5H3.99988H4.49988V42V39.5H6.99988H7.49988V39V36.5H12.9999H13.4999V36V32V31.5H12.9999H10.4999V29V28.5H9.99988H7.49988V26V25.5H6.99988H4.49988V10.5H6.99988H7.49988V10V6.5H9.99988H10.4999V6V3.5H12.9999H13.4999V3Z" fill="#D9D9D9" stroke="black"/>
</svg>
